<svg width="103" height="24" viewBox="0 0 103 24" fill="none" xmlns="http://www.w3.org/2000/svg">
<path d="M0.408 23V21.528L3.352 20.824V2.776L0.408 2.072V0.599998H16.92V7.16H15.448L14.104 2.744L7.288 2.488V10.68L14.2 10.104V12.952L7.288 12.408V20.824L10.872 21.528V23H0.408ZM15.4925 23V21.528L18.5005 20.824L26.2765 0.439999H28.5805L35.8765 20.856L38.8205 21.528V23H29.4125V21.528L31.7805 20.984L30.2445 16.664H22.4045L20.7405 20.888L23.5565 21.528V23H15.4925ZM23.1085 14.776H29.5405L26.4045 6.04L23.1085 14.776ZM40.702 5.72C40.702 3.94933 41.406 2.57333 42.814 1.592C44.222 0.610666 46.046 0.119999 48.286 0.119999C50.6753 0.119999 52.862 0.365332 54.846 0.855999L54.686 7H53.246L51.646 2.392C50.75 2.22133 49.8433 2.136 48.926 2.136C47.454 2.136 46.2913 2.424 45.438 3C44.606 3.576 44.19 4.376 44.19 5.4C44.19 6.27467 44.5633 7.01067 45.31 7.608C46.078 8.184 47.4007 8.86667 49.278 9.656C50.2807 10.0613 51.102 10.4453 51.742 10.808C52.4033 11.1493 53.1073 11.608 53.854 12.184C54.6007 12.76 55.1553 13.4533 55.518 14.264C55.902 15.0747 56.094 15.9813 56.094 16.984C56.094 19.1173 55.3047 20.76 53.726 21.912C52.254 22.9787 50.4087 23.5013 48.19 23.48C47.5927 23.48 46.6007 23.4267 45.214 23.32C43.8487 23.2133 42.366 22.9253 40.766 22.456V16.152H42.238L43.87 20.952C44.766 21.2293 45.8113 21.368 47.006 21.368C48.67 21.368 50.014 21.08 51.038 20.504C52.062 19.9067 52.574 18.9787 52.574 17.72C52.574 16.76 52.1153 15.928 51.198 15.224C50.2807 14.52 48.9367 13.784 47.166 13.016C44.734 11.9707 43.0487 10.9573 42.11 9.976C41.1713 8.99467 40.702 7.576 40.702 5.72ZM70.8098 0.119999C73.2844 0.119999 75.3644 0.493333 77.0498 1.24V7.288H75.5778L74.1058 2.552C73.2738 2.36 72.3138 2.264 71.2258 2.264C65.9138 2.264 63.2578 5.44267 63.2578 11.8C63.2578 18.1573 65.7004 21.336 70.5858 21.336C71.3111 21.336 71.9618 21.3147 72.5378 21.272C73.1138 21.2293 73.6364 21.1653 74.1058 21.08L75.9618 16.024H77.4338L77.2098 22.072C76.9111 22.2427 76.4844 22.4133 75.9298 22.584C75.3751 22.7547 74.7671 22.904 74.1058 23.032C73.4658 23.16 72.7938 23.2667 72.0898 23.352C71.4071 23.4373 70.7778 23.48 70.2018 23.48C66.5964 23.48 63.8658 22.4773 62.0098 20.472C60.1538 18.4667 59.2258 15.576 59.2258 11.8C59.2258 8.024 60.1858 5.13333 62.1058 3.128C64.0471 1.12267 66.9484 0.119999 70.8098 0.119999ZM91.4145 0.119999C93.1425 0.119999 94.6678 0.407999 95.9905 0.983999C97.3132 1.56 98.4332 2.36 99.3505 3.384C100.268 4.408 100.961 5.63467 101.431 7.064C101.9 8.49333 102.135 10.0613 102.135 11.768C102.135 13.496 101.9 15.0747 101.431 16.504C100.983 17.9333 100.3 19.1707 99.3825 20.216C98.4865 21.24 97.3665 22.04 96.0225 22.616C94.6998 23.192 93.1638 23.48 91.4145 23.48C89.5585 23.48 87.9478 23.1707 86.5825 22.552C85.2385 21.9333 84.1292 21.1013 83.2545 20.056C82.3798 18.9893 81.7292 17.7413 81.3025 16.312C80.8972 14.8827 80.6945 13.3467 80.6945 11.704C80.6945 10.104 80.9078 8.61067 81.3345 7.224C81.7612 5.816 82.4118 4.58933 83.2865 3.544C84.1612 2.47733 85.2705 1.64533 86.6145 1.048C87.9798 0.429332 89.5798 0.119999 91.4145 0.119999ZM91.4145 2.008C89.2385 2.008 87.5852 2.92533 86.4545 4.76C85.3452 6.57333 84.7905 8.92 84.7905 11.8C84.7905 14.8507 85.3772 17.2507 86.5505 19C87.7452 20.728 89.3665 21.592 91.4145 21.592C93.4625 21.592 95.0732 20.728 96.2465 19C97.4412 17.2507 98.0385 14.8507 98.0385 11.8C98.0385 8.92 97.4732 6.57333 96.3425 4.76C95.2332 2.92533 93.5905 2.008 91.4145 2.008Z" fill="#484848"/>
</svg>
