<svg width="213" height="50" viewBox="0 0 213 50" fill="none" xmlns="http://www.w3.org/2000/svg">
<path d="M0.930246 48V44.9366L7.05712 43.4714V5.91102L0.930246 4.44589V1.38245H35.294V15.0347H32.2306L29.4335 5.84442L15.2485 5.31165V22.3604L29.6333 21.1616V27.0887L15.2485 25.9566V43.4714L22.7073 44.9366V48H0.930246ZM32.3232 48V44.9366L38.5833 43.4714L54.7662 1.04947H59.5612L74.7452 43.538L80.872 44.9366V48H61.2927V44.9366L66.2208 43.8044L63.0242 34.8139H46.708L43.245 43.6046L49.1055 44.9366V48H32.3232ZM48.1732 30.8847H61.5591L55.0326 12.7039L48.1732 30.8847ZM84.7877 12.0379C84.7877 8.35289 86.2528 5.48924 89.1831 3.44695C92.1133 1.40465 95.9093 0.383508 100.571 0.383508C105.544 0.383508 110.094 0.894081 114.223 1.91523L113.89 14.7018H110.894L107.564 5.11186C105.699 4.75668 103.812 4.57909 101.903 4.57909C98.8396 4.57909 96.4199 5.17846 94.644 6.37719C92.9125 7.57593 92.0467 9.24084 92.0467 11.3719C92.0467 13.1922 92.8237 14.724 94.3776 15.9671C95.9759 17.1658 98.7286 18.5865 102.636 20.2293C104.722 21.0728 106.432 21.872 107.764 22.6267C109.14 23.3371 110.605 24.2916 112.159 25.4904C113.713 26.6891 114.867 28.132 115.622 29.8192C116.421 31.5063 116.821 33.3932 116.821 35.4799C116.821 39.9196 115.178 43.3382 111.892 45.7357C108.829 47.9556 104.989 49.0433 100.371 48.9989C99.1282 48.9989 97.0637 48.888 94.1778 48.666C91.3364 48.444 88.2507 47.8446 84.9209 46.8679V33.7484H87.9843L91.3808 43.7378C93.2455 44.315 95.421 44.6036 97.9072 44.6036C101.37 44.6036 104.167 44.0042 106.298 42.8055C108.429 41.5623 109.495 39.631 109.495 37.0116C109.495 35.0137 108.54 33.2822 106.631 31.8171C104.722 30.3519 101.925 28.8202 98.2402 27.2219C93.1789 25.0464 89.6715 22.9375 87.718 20.8952C85.7645 18.8529 84.7877 15.9005 84.7877 12.0379ZM147.446 0.383508C152.596 0.383508 156.925 1.16047 160.432 2.71439V15.3011H157.369L154.306 5.44484C152.574 5.04526 150.576 4.84548 148.312 4.84548C137.257 4.84548 131.729 11.4607 131.729 24.6912C131.729 37.9217 136.813 44.537 146.98 44.537C148.49 44.537 149.844 44.4926 151.042 44.4038C152.241 44.315 153.329 44.1818 154.306 44.0042L158.168 33.482H161.232L160.765 46.0687C160.144 46.4239 159.256 46.7791 158.102 47.1342C156.947 47.4894 155.682 47.8002 154.306 48.0666C152.974 48.333 151.575 48.555 150.11 48.7326C148.689 48.9102 147.38 48.9989 146.181 48.9989C138.678 48.9989 132.995 46.9123 129.132 42.7389C125.27 38.5655 123.338 32.5496 123.338 24.6912C123.338 16.8328 125.336 10.817 129.332 6.64358C133.372 2.4702 139.41 0.383508 147.446 0.383508ZM190.328 0.383508C193.924 0.383508 197.098 0.982877 199.851 2.18161C202.603 3.38035 204.934 5.04526 206.843 7.17635C208.753 9.30744 210.195 11.8603 211.172 14.8349C212.149 17.8096 212.637 21.0728 212.637 24.6246C212.637 28.2208 212.149 31.5063 211.172 34.4809C210.24 37.4556 208.819 40.0306 206.91 42.2061C205.045 44.3372 202.714 46.0021 199.917 47.2008C197.165 48.3996 193.968 48.9989 190.328 48.9989C186.465 48.9989 183.113 48.3552 180.271 47.0676C177.474 45.7801 175.166 44.0486 173.345 41.8731C171.525 39.6532 170.171 37.056 169.283 34.0813C168.439 31.1067 168.018 27.9101 168.018 24.4914C168.018 21.1616 168.462 18.0538 169.35 15.1679C170.238 12.2377 171.592 9.68482 173.412 7.50933C175.232 5.28945 177.541 3.55794 180.338 2.31481C183.18 1.02727 186.509 0.383508 190.328 0.383508ZM190.328 4.3127C185.799 4.3127 182.358 6.2218 180.005 10.04C177.696 13.8138 176.542 18.6975 176.542 24.6912C176.542 31.0401 177.763 36.0348 180.205 39.6754C182.691 43.2716 186.065 45.0698 190.328 45.0698C194.59 45.0698 197.942 43.2716 200.384 39.6754C202.87 36.0348 204.113 31.0401 204.113 24.6912C204.113 18.6975 202.936 13.8138 200.583 10.04C198.275 6.2218 194.856 4.3127 190.328 4.3127Z" fill="#484848"/>
</svg>
